<?xml version="1.0" standalone="no"?><!DOCTYPE svg PUBLIC "-//W3C//DTD SVG 1.1//EN" "http://www.w3.org/Graphics/SVG/1.1/DTD/svg11.dtd"><svg t="1773385495732" class="icon" viewBox="0 0 1024 1024" version="1.1" xmlns="http://www.w3.org/2000/svg" p-id="6112" xmlns:xlink="http://www.w3.org/1999/xlink" width="200" height="200"><path d="M896.000091 91.428571q25.142857 29.714286 6.857143 84.571429t-61.714285 98.285714l-92 92 91.428571 397.714286q2.857143 10.857143-6.857143 18.857143l-73.142857 54.857143q-4 3.428571-10.857143 3.428571-2.285714 0-4-0.571428-8.571429-1.714286-12-9.142858L574.285806 541.142857l-148 148 30.285714 110.857143q2.857143 9.714286-4.571429 17.714286l-54.857142 54.857143q-5.142857 5.142857-13.142858 5.142857h-1.142857q-8.571429-1.142857-13.714285-7.428572l-108-144-144-108q-6.285714-4-7.428572-13.142857-0.571429-7.428571 5.142857-14.285714l54.857143-55.428572q5.142857-5.142857 13.142857-5.142857 3.428571 0 4.571429 0.571429l110.857143 30.285714 148-148L156.000091 253.714286q-8-4.571429-9.714285-13.714286-1.142857-9.142857 5.142857-15.428571l73.142857-73.142858q8-7.428571 17.142857-4.571428l380 90.857143 91.428572-91.428572q43.428571-43.428571 98.285714-61.714285t84.571428 6.857142z" p-id="6113" fill="#707070"></path></svg>